<svg xmlns="http://www.w3.org/2000/svg" width="11" height="11" viewBox="0 0 11 11">
    <g fill="none" fill-rule="evenodd">
        <g fill="#FFF" fill-rule="nonzero">
            <g>
                <g>
                    <path d="M46.971 10.253c.824-.04 1.554-.228 2.156-.83.603-.603.79-1.333.83-2.157.027-.473.033-.943.034-1.415v-.708c0-.71.007-1.413-.033-2.122-.04-.824-.228-1.554-.83-2.157-.603-.602-1.333-.79-2.157-.83C46.498.007 46.028 0 45.556 0h-.708c-.71 0-1.413-.006-2.123.034-.823.04-1.553.228-2.156.83-.602.603-.79 1.333-.83 2.157-.027.473-.033.943-.034 1.414v.708c0 .71-.006 1.413.034 2.123.04.824.228 1.554.83 2.156.603.603 1.333.79 2.156.83.474.027.944.033 1.415.034h.708c.71 0 1.413.007 2.123-.033zm-1.935-.89l-.188-.001c-.75 0-2.357.06-3.033-.208-.235-.093-.409-.207-.59-.388-.18-.18-.294-.355-.388-.59-.268-.676-.208-2.283-.208-3.033s-.06-2.357.208-3.033c.094-.235.208-.409.388-.59.181-.18.355-.294.59-.388.676-.268 2.283-.207 3.033-.207s2.357-.06 3.034.207c.234.094.408.208.589.389.18.18.295.354.388.589.268.676.208 2.283.208 3.033s.06 2.357-.208 3.034c-.093.234-.207.408-.388.59-.18.18-.355.294-.59.387-.624.248-2.041.215-2.845.209zm2.558-6.35c.341 0 .616-.274.616-.615 0-.342-.275-.616-.616-.616-.342 0-.616.274-.616.616 0 .341.274.616.616.616zm-2.746 4.769c1.46 0 2.639-1.179 2.639-2.639 0-1.46-1.179-2.638-2.639-2.638-1.46 0-2.638 1.178-2.638 2.638s1.178 2.639 2.638 2.639zm0-.924c-.944 0-1.714-.77-1.714-1.715 0-.944.77-1.714 1.714-1.714s1.715.77 1.715 1.714-.77 1.715-1.715 1.715z" transform="translate(-290.000000, -3743.000000) translate(0.000000, 3606.000000) translate(250.294643, 137.570999)"/>
                </g>
            </g>
        </g>
    </g>
</svg>
