<svg xmlns="http://www.w3.org/2000/svg" width="11" height="11" viewBox="0 0 11 11">
    <g fill="none" fill-rule="evenodd">
        <g fill="#FFF" fill-rule="nonzero">
            <g>
                <g>
                    <path d="M25.196 10.286V6.302h-1.339V4.748h1.34V3.603c0-1.326.816-2.049 2.002-2.049.562 0 1.051.04 1.192.06V3l-.817.007c-.65 0-.77.301-.77.75v.991h1.533l-.2 1.554h-1.333v3.984h1.259c1.064 0 1.928-.864 1.928-1.928V1.929C29.991.864 29.127 0 28.063 0h-6.43c-1.064 0-1.928.864-1.928 1.929v6.429c0 1.064.864 1.928 1.929 1.928h3.562z" transform="translate(-270.000000, -3743.000000) translate(0.000000, 3606.000000) translate(250.294643, 137.570999)"/>
                </g>
            </g>
        </g>
    </g>
</svg>
