<svg xmlns="http://www.w3.org/2000/svg" width="11" height="9" viewBox="0 0 11 9">
    <g fill="none" fill-rule="evenodd">
        <g fill="#FFF" fill-rule="nonzero">
            <g>
                <g>
                    <path d="M3.321 9.429c3.978 0 6.154-3.295 6.154-6.154 0-.094 0-.188-.006-.281.422-.308.79-.69 1.085-1.119-.389.168-.81.288-1.246.335.449-.268.79-.69.95-1.192-.414.248-.883.429-1.372.523-.395-.422-.957-.683-1.58-.683-1.199 0-2.163.97-2.163 2.163 0 .167.02.334.053.495-1.794-.094-3.395-.95-4.46-2.263-.187.321-.294.69-.294 1.091 0 .75.382 1.413.964 1.802-.355-.014-.69-.114-.977-.275v.027c0 1.051.743 1.922 1.734 2.123-.18.046-.375.073-.57.073-.14 0-.274-.013-.408-.033.275.857 1.072 1.48 2.023 1.5-.744.582-1.675.924-2.686.924-.18 0-.348-.007-.522-.027.958.616 2.096.971 3.321.971z" transform="translate(-250.000000, -3744.000000) translate(0.000000, 3606.000000) translate(250.294643, 137.570999)"/>
                </g>
            </g>
        </g>
    </g>
</svg>
